<?xml version="1.0" encoding="utf-8"?>
<!-- Generator: Adobe Illustrator 16.0.0, SVG Export Plug-In . SVG Version: 6.00 Build 0)  -->
<!DOCTYPE svg PUBLIC "-//W3C//DTD SVG 1.1//EN" "http://www.w3.org/Graphics/SVG/1.1/DTD/svg11.dtd">
<svg version="1.1" id="Capa_1" xmlns="http://www.w3.org/2000/svg" xmlns:xlink="http://www.w3.org/1999/xlink" x="0px" y="0px"
	 width="1014.33px" height="14.5px" viewBox="0 0 1014.33 14.5" enable-background="new 0 0 1014.33 14.5" xml:space="preserve">
<g>
	<path fill="#C6C3C6" d="M9.569,4.271H7.177v1.197h1.196v1.195H5.981V5.469H4.785v1.195H2.392V5.469h1.196V4.271H1.196V3.076h2.392
		V1.881H2.392V0.684h2.393v1.197h1.196V0.684h2.392v1.197H7.177v1.195h2.393V4.271z M9.569,11.449H7.177v1.195h1.196v1.197H5.981
		v-1.197H4.785v1.197H2.392v-1.197h1.196v-1.195H1.196v-1.195h2.392V9.057H2.392V7.861h2.393v1.195h1.196V7.861h2.392v1.195H7.177
		v1.197h2.393V11.449z"/>
	<path fill="#C6C3C6" d="M19.139,4.271h-2.393v1.197h1.196v1.195H15.55V5.469h-1.196v1.195h-2.393V5.469h1.196V4.271h-2.392V3.076
		h2.392V1.881h-1.196V0.684h2.393v1.197h1.196V0.684h2.392v1.197h-1.196v1.195h2.393V4.271z M19.139,11.449h-2.393v1.195h1.196
		v1.197H15.55v-1.197h-1.196v1.197h-2.393v-1.197h1.196v-1.195h-2.392v-1.195h2.392V9.057h-1.196V7.861h2.393v1.195h1.196V7.861
		h2.392v1.195h-1.196v1.197h2.393V11.449z"/>
	<path fill="#C6C3C6" d="M28.708,4.271h-2.393v1.197h1.196v1.195h-2.392V5.469h-1.196v1.195H21.53V5.469h1.196V4.271h-2.392V3.076
		h2.392V1.881H21.53V0.684h2.393v1.197h1.196V0.684h2.392v1.197h-1.196v1.195h2.393V4.271z M28.708,11.449h-2.393v1.195h1.196v1.197
		h-2.392v-1.197h-1.196v1.197H21.53v-1.197h1.196v-1.195h-2.392v-1.195h2.392V9.057H21.53V7.861h2.393v1.195h1.196V7.861h2.392
		v1.195h-1.196v1.197h2.393V11.449z"/>
	<path fill="#C6C3C6" d="M38.277,4.271h-2.393v1.197h1.196v1.195h-2.392V5.469h-1.196v1.195H31.1V5.469h1.196V4.271h-2.392V3.076
		h2.392V1.881H31.1V0.684h2.393v1.197h1.196V0.684h2.392v1.197h-1.196v1.195h2.393V4.271z M38.277,11.449h-2.393v1.195h1.196v1.197
		h-2.392v-1.197h-1.196v1.197H31.1v-1.197h1.196v-1.195h-2.392v-1.195h2.392V9.057H31.1V7.861h2.393v1.195h1.196V7.861h2.392v1.195
		h-1.196v1.197h2.393V11.449z"/>
	<path fill="#C6C3C6" d="M47.846,4.271h-2.393v1.197h1.196v1.195h-2.392V5.469h-1.196v1.195h-2.393V5.469h1.196V4.271h-2.392V3.076
		h2.392V1.881h-1.196V0.684h2.393v1.197h1.196V0.684h2.392v1.197h-1.196v1.195h2.393V4.271z M47.846,11.449h-2.393v1.195h1.196
		v1.197h-2.392v-1.197h-1.196v1.197h-2.393v-1.197h1.196v-1.195h-2.392v-1.195h2.392V9.057h-1.196V7.861h2.393v1.195h1.196V7.861
		h2.392v1.195h-1.196v1.197h2.393V11.449z"/>
	<path fill="#C6C3C6" d="M57.415,4.271h-2.393v1.197h1.196v1.195h-2.392V5.469H52.63v1.195h-2.393V5.469h1.196V4.271h-2.392V3.076
		h2.392V1.881h-1.196V0.684h2.393v1.197h1.196V0.684h2.392v1.197h-1.196v1.195h2.393V4.271z M57.415,11.449h-2.393v1.195h1.196
		v1.197h-2.392v-1.197H52.63v1.197h-2.393v-1.197h1.196v-1.195h-2.392v-1.195h2.392V9.057h-1.196V7.861h2.393v1.195h1.196V7.861
		h2.392v1.195h-1.196v1.197h2.393V11.449z"/>
	<path fill="#C6C3C6" d="M66.984,4.271h-2.393v1.197h1.196v1.195h-2.392V5.469H62.2v1.195h-2.393V5.469h1.196V4.271h-2.392V3.076
		h2.392V1.881h-1.196V0.684H62.2v1.197h1.196V0.684h2.392v1.197h-1.196v1.195h2.393V4.271z M66.984,11.449h-2.393v1.195h1.196v1.197
		h-2.392v-1.197H62.2v1.197h-2.393v-1.197h1.196v-1.195h-2.392v-1.195h2.392V9.057h-1.196V7.861H62.2v1.195h1.196V7.861h2.392v1.195
		h-1.196v1.197h2.393V11.449z"/>
	<path fill="#C6C3C6" d="M76.553,4.271h-2.393v1.197h1.196v1.195h-2.392V5.469h-1.196v1.195h-2.393V5.469h1.196V4.271H68.18V3.076
		h2.392V1.881h-1.196V0.684h2.393v1.197h1.196V0.684h2.392v1.197h-1.196v1.195h2.393V4.271z M76.553,11.449h-2.393v1.195h1.196
		v1.197h-2.392v-1.197h-1.196v1.197h-2.393v-1.197h1.196v-1.195H68.18v-1.195h2.392V9.057h-1.196V7.861h2.393v1.195h1.196V7.861
		h2.392v1.195h-1.196v1.197h2.393V11.449z"/>
	<path fill="#C6C3C6" d="M86.123,4.271H83.73v1.197h1.196v1.195h-2.392V5.469h-1.196v1.195h-2.393V5.469h1.196V4.271H77.75V3.076
		h2.392V1.881h-1.196V0.684h2.393v1.197h1.196V0.684h2.392v1.197H83.73v1.195h2.393V4.271z M86.123,11.449H83.73v1.195h1.196v1.197
		h-2.392v-1.197h-1.196v1.197h-2.393v-1.197h1.196v-1.195H77.75v-1.195h2.392V9.057h-1.196V7.861h2.393v1.195h1.196V7.861h2.392
		v1.195H83.73v1.197h2.393V11.449z"/>
	<path fill="#C6C3C6" d="M95.692,4.271h-2.393v1.197h1.196v1.195h-2.392V5.469h-1.196v1.195h-2.393V5.469h1.196V4.271h-2.392V3.076
		h2.392V1.881h-1.196V0.684h2.393v1.197h1.196V0.684h2.392v1.197h-1.196v1.195h2.393V4.271z M95.692,11.449h-2.393v1.195h1.196
		v1.197h-2.392v-1.197h-1.196v1.197h-2.393v-1.197h1.196v-1.195h-2.392v-1.195h2.392V9.057h-1.196V7.861h2.393v1.195h1.196V7.861
		h2.392v1.195h-1.196v1.197h2.393V11.449z"/>
	<path fill="#C6C3C6" d="M105.261,4.271h-2.393v1.197h1.196v1.195h-2.392V5.469h-1.196v1.195h-2.393V5.469h1.196V4.271h-2.392V3.076
		h2.392V1.881h-1.196V0.684h2.393v1.197h1.196V0.684h2.392v1.197h-1.196v1.195h2.393V4.271z M105.261,11.449h-2.393v1.195h1.196
		v1.197h-2.392v-1.197h-1.196v1.197h-2.393v-1.197h1.196v-1.195h-2.392v-1.195h2.392V9.057h-1.196V7.861h2.393v1.195h1.196V7.861
		h2.392v1.195h-1.196v1.197h2.393V11.449z"/>
	<path fill="#C6C3C6" d="M114.83,4.271h-2.393v1.197h1.196v1.195h-2.392V5.469h-1.196v1.195h-2.393V5.469h1.196V4.271h-2.392V3.076
		h2.392V1.881h-1.196V0.684h2.393v1.197h1.196V0.684h2.392v1.197h-1.196v1.195h2.393V4.271z M114.83,11.449h-2.393v1.195h1.196
		v1.197h-2.392v-1.197h-1.196v1.197h-2.393v-1.197h1.196v-1.195h-2.392v-1.195h2.392V9.057h-1.196V7.861h2.393v1.195h1.196V7.861
		h2.392v1.195h-1.196v1.197h2.393V11.449z"/>
	<path fill="#C6C3C6" d="M124.399,4.271h-2.393v1.197h1.196v1.195h-2.392V5.469h-1.196v1.195h-2.393V5.469h1.196V4.271h-2.392V3.076
		h2.392V1.881h-1.196V0.684h2.393v1.197h1.196V0.684h2.392v1.197h-1.196v1.195h2.393V4.271z M124.399,11.449h-2.393v1.195h1.196
		v1.197h-2.392v-1.197h-1.196v1.197h-2.393v-1.197h1.196v-1.195h-2.392v-1.195h2.392V9.057h-1.196V7.861h2.393v1.195h1.196V7.861
		h2.392v1.195h-1.196v1.197h2.393V11.449z"/>
	<path fill="#C6C3C6" d="M133.968,4.271h-2.393v1.197h1.196v1.195h-2.392V5.469h-1.196v1.195h-2.393V5.469h1.196V4.271h-2.392V3.076
		h2.392V1.881h-1.196V0.684h2.393v1.197h1.196V0.684h2.392v1.197h-1.196v1.195h2.393V4.271z M133.968,11.449h-2.393v1.195h1.196
		v1.197h-2.392v-1.197h-1.196v1.197h-2.393v-1.197h1.196v-1.195h-2.392v-1.195h2.392V9.057h-1.196V7.861h2.393v1.195h1.196V7.861
		h2.392v1.195h-1.196v1.197h2.393V11.449z"/>
	<path fill="#C6C3C6" d="M143.538,4.271h-2.393v1.197h1.196v1.195h-2.392V5.469h-1.196v1.195h-2.393V5.469h1.196V4.271h-2.392V3.076
		h2.392V1.881h-1.196V0.684h2.393v1.197h1.196V0.684h2.392v1.197h-1.196v1.195h2.393V4.271z M143.538,11.449h-2.393v1.195h1.196
		v1.197h-2.392v-1.197h-1.196v1.197h-2.393v-1.197h1.196v-1.195h-2.392v-1.195h2.392V9.057h-1.196V7.861h2.393v1.195h1.196V7.861
		h2.392v1.195h-1.196v1.197h2.393V11.449z"/>
	<path fill="#C6C3C6" d="M153.106,4.271h-2.393v1.197h1.196v1.195h-2.392V5.469h-1.196v1.195h-2.393V5.469h1.196V4.271h-2.392V3.076
		h2.392V1.881h-1.196V0.684h2.393v1.197h1.196V0.684h2.392v1.197h-1.196v1.195h2.393V4.271z M153.106,11.449h-2.393v1.195h1.196
		v1.197h-2.392v-1.197h-1.196v1.197h-2.393v-1.197h1.196v-1.195h-2.392v-1.195h2.392V9.057h-1.196V7.861h2.393v1.195h1.196V7.861
		h2.392v1.195h-1.196v1.197h2.393V11.449z"/>
	<path fill="#C6C3C6" d="M162.676,4.271h-2.393v1.197h1.196v1.195h-2.392V5.469h-1.196v1.195h-2.393V5.469h1.196V4.271h-2.392V3.076
		h2.392V1.881h-1.196V0.684h2.393v1.197h1.196V0.684h2.392v1.197h-1.196v1.195h2.393V4.271z M162.676,11.449h-2.393v1.195h1.196
		v1.197h-2.392v-1.197h-1.196v1.197h-2.393v-1.197h1.196v-1.195h-2.392v-1.195h2.392V9.057h-1.196V7.861h2.393v1.195h1.196V7.861
		h2.392v1.195h-1.196v1.197h2.393V11.449z"/>
	<path fill="#C6C3C6" d="M172.245,4.271h-2.393v1.197h1.196v1.195h-2.392V5.469h-1.196v1.195h-2.393V5.469h1.196V4.271h-2.392V3.076
		h2.392V1.881h-1.196V0.684h2.393v1.197h1.196V0.684h2.392v1.197h-1.196v1.195h2.393V4.271z M172.245,11.449h-2.393v1.195h1.196
		v1.197h-2.392v-1.197h-1.196v1.197h-2.393v-1.197h1.196v-1.195h-2.392v-1.195h2.392V9.057h-1.196V7.861h2.393v1.195h1.196V7.861
		h2.392v1.195h-1.196v1.197h2.393V11.449z"/>
	<path fill="#C6C3C6" d="M181.814,4.271h-2.393v1.197h1.196v1.195h-2.392V5.469h-1.196v1.195h-2.393V5.469h1.196V4.271h-2.392V3.076
		h2.392V1.881h-1.196V0.684h2.393v1.197h1.196V0.684h2.392v1.197h-1.196v1.195h2.393V4.271z M181.814,11.449h-2.393v1.195h1.196
		v1.197h-2.392v-1.197h-1.196v1.197h-2.393v-1.197h1.196v-1.195h-2.392v-1.195h2.392V9.057h-1.196V7.861h2.393v1.195h1.196V7.861
		h2.392v1.195h-1.196v1.197h2.393V11.449z"/>
	<path fill="#C6C3C6" d="M191.383,4.271h-2.393v1.197h1.196v1.195h-2.392V5.469h-1.196v1.195h-2.393V5.469h1.196V4.271h-2.392V3.076
		h2.392V1.881h-1.196V0.684h2.393v1.197h1.196V0.684h2.392v1.197h-1.196v1.195h2.393V4.271z M191.383,11.449h-2.393v1.195h1.196
		v1.197h-2.392v-1.197h-1.196v1.197h-2.393v-1.197h1.196v-1.195h-2.392v-1.195h2.392V9.057h-1.196V7.861h2.393v1.195h1.196V7.861
		h2.392v1.195h-1.196v1.197h2.393V11.449z"/>
	<path fill="#C6C3C6" d="M200.952,4.271h-2.393v1.197h1.196v1.195h-2.392V5.469h-1.196v1.195h-2.393V5.469h1.196V4.271h-2.392V3.076
		h2.392V1.881h-1.196V0.684h2.393v1.197h1.196V0.684h2.392v1.197h-1.196v1.195h2.393V4.271z M200.952,11.449h-2.393v1.195h1.196
		v1.197h-2.392v-1.197h-1.196v1.197h-2.393v-1.197h1.196v-1.195h-2.392v-1.195h2.392V9.057h-1.196V7.861h2.393v1.195h1.196V7.861
		h2.392v1.195h-1.196v1.197h2.393V11.449z"/>
	<path fill="#C6C3C6" d="M210.521,4.271h-2.393v1.197h1.196v1.195h-2.392V5.469h-1.196v1.195h-2.393V5.469h1.196V4.271h-2.392V3.076
		h2.392V1.881h-1.196V0.684h2.393v1.197h1.196V0.684h2.392v1.197h-1.196v1.195h2.393V4.271z M210.521,11.449h-2.393v1.195h1.196
		v1.197h-2.392v-1.197h-1.196v1.197h-2.393v-1.197h1.196v-1.195h-2.392v-1.195h2.392V9.057h-1.196V7.861h2.393v1.195h1.196V7.861
		h2.392v1.195h-1.196v1.197h2.393V11.449z"/>
	<path fill="#C6C3C6" d="M220.091,4.271h-2.393v1.197h1.196v1.195h-2.392V5.469h-1.196v1.195h-2.393V5.469h1.196V4.271h-2.392V3.076
		h2.392V1.881h-1.196V0.684h2.393v1.197h1.196V0.684h2.392v1.197h-1.196v1.195h2.393V4.271z M220.091,11.449h-2.393v1.195h1.196
		v1.197h-2.392v-1.197h-1.196v1.197h-2.393v-1.197h1.196v-1.195h-2.392v-1.195h2.392V9.057h-1.196V7.861h2.393v1.195h1.196V7.861
		h2.392v1.195h-1.196v1.197h2.393V11.449z"/>
	<path fill="#C6C3C6" d="M229.66,4.271h-2.393v1.197h1.196v1.195h-2.392V5.469h-1.196v1.195h-2.393V5.469h1.196V4.271h-2.392V3.076
		h2.392V1.881h-1.196V0.684h2.393v1.197h1.196V0.684h2.392v1.197h-1.196v1.195h2.393V4.271z M229.66,11.449h-2.393v1.195h1.196
		v1.197h-2.392v-1.197h-1.196v1.197h-2.393v-1.197h1.196v-1.195h-2.392v-1.195h2.392V9.057h-1.196V7.861h2.393v1.195h1.196V7.861
		h2.392v1.195h-1.196v1.197h2.393V11.449z"/>
	<path fill="#C6C3C6" d="M239.229,4.271h-2.393v1.197h1.196v1.195h-2.392V5.469h-1.196v1.195h-2.393V5.469h1.196V4.271h-2.392V3.076
		h2.392V1.881h-1.196V0.684h2.393v1.197h1.196V0.684h2.392v1.197h-1.196v1.195h2.393V4.271z M239.229,11.449h-2.393v1.195h1.196
		v1.197h-2.392v-1.197h-1.196v1.197h-2.393v-1.197h1.196v-1.195h-2.392v-1.195h2.392V9.057h-1.196V7.861h2.393v1.195h1.196V7.861
		h2.392v1.195h-1.196v1.197h2.393V11.449z"/>
	<path fill="#C6C3C6" d="M248.798,4.271h-2.393v1.197h1.196v1.195h-2.392V5.469h-1.196v1.195h-2.393V5.469h1.196V4.271h-2.392V3.076
		h2.392V1.881h-1.196V0.684h2.393v1.197h1.196V0.684h2.392v1.197h-1.196v1.195h2.393V4.271z M248.798,11.449h-2.393v1.195h1.196
		v1.197h-2.392v-1.197h-1.196v1.197h-2.393v-1.197h1.196v-1.195h-2.392v-1.195h2.392V9.057h-1.196V7.861h2.393v1.195h1.196V7.861
		h2.392v1.195h-1.196v1.197h2.393V11.449z"/>
	<path fill="#C6C3C6" d="M258.367,4.271h-2.393v1.197h1.196v1.195h-2.392V5.469h-1.196v1.195h-2.393V5.469h1.196V4.271h-2.392V3.076
		h2.392V1.881h-1.196V0.684h2.393v1.197h1.196V0.684h2.392v1.197h-1.196v1.195h2.393V4.271z M258.367,11.449h-2.393v1.195h1.196
		v1.197h-2.392v-1.197h-1.196v1.197h-2.393v-1.197h1.196v-1.195h-2.392v-1.195h2.392V9.057h-1.196V7.861h2.393v1.195h1.196V7.861
		h2.392v1.195h-1.196v1.197h2.393V11.449z"/>
	<path fill="#C6C3C6" d="M267.937,4.271h-2.393v1.197h1.196v1.195h-2.392V5.469h-1.196v1.195h-2.393V5.469h1.196V4.271h-2.392V3.076
		h2.392V1.881h-1.196V0.684h2.393v1.197h1.196V0.684h2.392v1.197h-1.196v1.195h2.393V4.271z M267.937,11.449h-2.393v1.195h1.196
		v1.197h-2.392v-1.197h-1.196v1.197h-2.393v-1.197h1.196v-1.195h-2.392v-1.195h2.392V9.057h-1.196V7.861h2.393v1.195h1.196V7.861
		h2.392v1.195h-1.196v1.197h2.393V11.449z"/>
	<path fill="#C6C3C6" d="M277.506,4.271h-2.393v1.197h1.196v1.195h-2.392V5.469h-1.196v1.195h-2.393V5.469h1.196V4.271h-2.392V3.076
		h2.392V1.881h-1.196V0.684h2.393v1.197h1.196V0.684h2.392v1.197h-1.196v1.195h2.393V4.271z M277.506,11.449h-2.393v1.195h1.196
		v1.197h-2.392v-1.197h-1.196v1.197h-2.393v-1.197h1.196v-1.195h-2.392v-1.195h2.392V9.057h-1.196V7.861h2.393v1.195h1.196V7.861
		h2.392v1.195h-1.196v1.197h2.393V11.449z"/>
	<path fill="#C6C3C6" d="M287.075,4.271h-2.393v1.197h1.196v1.195h-2.392V5.469h-1.196v1.195h-2.393V5.469h1.196V4.271h-2.392V3.076
		h2.392V1.881h-1.196V0.684h2.393v1.197h1.196V0.684h2.392v1.197h-1.196v1.195h2.393V4.271z M287.075,11.449h-2.393v1.195h1.196
		v1.197h-2.392v-1.197h-1.196v1.197h-2.393v-1.197h1.196v-1.195h-2.392v-1.195h2.392V9.057h-1.196V7.861h2.393v1.195h1.196V7.861
		h2.392v1.195h-1.196v1.197h2.393V11.449z"/>
	<path fill="#C6C3C6" d="M296.644,4.271h-2.393v1.197h1.196v1.195h-2.392V5.469h-1.196v1.195h-2.393V5.469h1.196V4.271h-2.392V3.076
		h2.392V1.881h-1.196V0.684h2.393v1.197h1.196V0.684h2.392v1.197h-1.196v1.195h2.393V4.271z M296.644,11.449h-2.393v1.195h1.196
		v1.197h-2.392v-1.197h-1.196v1.197h-2.393v-1.197h1.196v-1.195h-2.392v-1.195h2.392V9.057h-1.196V7.861h2.393v1.195h1.196V7.861
		h2.392v1.195h-1.196v1.197h2.393V11.449z"/>
	<path fill="#C6C3C6" d="M306.213,4.271h-2.393v1.197h1.196v1.195h-2.392V5.469h-1.196v1.195h-2.393V5.469h1.196V4.271h-2.392V3.076
		h2.392V1.881h-1.196V0.684h2.393v1.197h1.196V0.684h2.392v1.197h-1.196v1.195h2.393V4.271z M306.213,11.449h-2.393v1.195h1.196
		v1.197h-2.392v-1.197h-1.196v1.197h-2.393v-1.197h1.196v-1.195h-2.392v-1.195h2.392V9.057h-1.196V7.861h2.393v1.195h1.196V7.861
		h2.392v1.195h-1.196v1.197h2.393V11.449z"/>
	<path fill="#C6C3C6" d="M315.782,4.271h-2.393v1.197h1.196v1.195h-2.392V5.469h-1.196v1.195h-2.393V5.469h1.196V4.271h-2.392V3.076
		h2.392V1.881h-1.196V0.684h2.393v1.197h1.196V0.684h2.392v1.197h-1.196v1.195h2.393V4.271z M315.782,11.449h-2.393v1.195h1.196
		v1.197h-2.392v-1.197h-1.196v1.197h-2.393v-1.197h1.196v-1.195h-2.392v-1.195h2.392V9.057h-1.196V7.861h2.393v1.195h1.196V7.861
		h2.392v1.195h-1.196v1.197h2.393V11.449z"/>
	<path fill="#C6C3C6" d="M325.352,4.271h-2.393v1.197h1.196v1.195h-2.392V5.469h-1.196v1.195h-2.393V5.469h1.196V4.271h-2.392V3.076
		h2.392V1.881h-1.196V0.684h2.393v1.197h1.196V0.684h2.392v1.197h-1.196v1.195h2.393V4.271z M325.352,11.449h-2.393v1.195h1.196
		v1.197h-2.392v-1.197h-1.196v1.197h-2.393v-1.197h1.196v-1.195h-2.392v-1.195h2.392V9.057h-1.196V7.861h2.393v1.195h1.196V7.861
		h2.392v1.195h-1.196v1.197h2.393V11.449z"/>
	<path fill="#C6C3C6" d="M334.92,4.271h-2.393v1.197h1.196v1.195h-2.392V5.469h-1.196v1.195h-2.393V5.469h1.196V4.271h-2.392V3.076
		h2.392V1.881h-1.196V0.684h2.393v1.197h1.196V0.684h2.392v1.197h-1.196v1.195h2.393V4.271z M334.92,11.449h-2.393v1.195h1.196
		v1.197h-2.392v-1.197h-1.196v1.197h-2.393v-1.197h1.196v-1.195h-2.392v-1.195h2.392V9.057h-1.196V7.861h2.393v1.195h1.196V7.861
		h2.392v1.195h-1.196v1.197h2.393V11.449z"/>
	<path fill="#C6C3C6" d="M344.49,4.271h-2.393v1.197h1.196v1.195h-2.392V5.469h-1.196v1.195h-2.393V5.469h1.196V4.271h-2.392V3.076
		h2.392V1.881h-1.196V0.684h2.393v1.197h1.196V0.684h2.392v1.197h-1.196v1.195h2.393V4.271z M344.49,11.449h-2.393v1.195h1.196
		v1.197h-2.392v-1.197h-1.196v1.197h-2.393v-1.197h1.196v-1.195h-2.392v-1.195h2.392V9.057h-1.196V7.861h2.393v1.195h1.196V7.861
		h2.392v1.195h-1.196v1.197h2.393V11.449z"/>
	<path fill="#C6C3C6" d="M354.059,4.271h-2.393v1.197h1.196v1.195h-2.392V5.469h-1.196v1.195h-2.393V5.469h1.196V4.271h-2.392V3.076
		h2.392V1.881h-1.196V0.684h2.393v1.197h1.196V0.684h2.392v1.197h-1.196v1.195h2.393V4.271z M354.059,11.449h-2.393v1.195h1.196
		v1.197h-2.392v-1.197h-1.196v1.197h-2.393v-1.197h1.196v-1.195h-2.392v-1.195h2.392V9.057h-1.196V7.861h2.393v1.195h1.196V7.861
		h2.392v1.195h-1.196v1.197h2.393V11.449z"/>
	<path fill="#C6C3C6" d="M363.628,4.271h-2.393v1.197h1.196v1.195h-2.392V5.469h-1.196v1.195h-2.393V5.469h1.196V4.271h-2.392V3.076
		h2.392V1.881h-1.196V0.684h2.393v1.197h1.196V0.684h2.392v1.197h-1.196v1.195h2.393V4.271z M363.628,11.449h-2.393v1.195h1.196
		v1.197h-2.392v-1.197h-1.196v1.197h-2.393v-1.197h1.196v-1.195h-2.392v-1.195h2.392V9.057h-1.196V7.861h2.393v1.195h1.196V7.861
		h2.392v1.195h-1.196v1.197h2.393V11.449z"/>
	<path fill="#C6C3C6" d="M373.197,4.271h-2.393v1.197h1.196v1.195h-2.392V5.469h-1.196v1.195h-2.393V5.469h1.196V4.271h-2.392V3.076
		h2.392V1.881h-1.196V0.684h2.393v1.197h1.196V0.684h2.392v1.197h-1.196v1.195h2.393V4.271z M373.197,11.449h-2.393v1.195h1.196
		v1.197h-2.392v-1.197h-1.196v1.197h-2.393v-1.197h1.196v-1.195h-2.392v-1.195h2.392V9.057h-1.196V7.861h2.393v1.195h1.196V7.861
		h2.392v1.195h-1.196v1.197h2.393V11.449z"/>
	<path fill="#C6C3C6" d="M382.766,4.271h-2.393v1.197h1.196v1.195h-2.392V5.469h-1.196v1.195h-2.393V5.469h1.196V4.271h-2.392V3.076
		h2.392V1.881h-1.196V0.684h2.393v1.197h1.196V0.684h2.392v1.197h-1.196v1.195h2.393V4.271z M382.766,11.449h-2.393v1.195h1.196
		v1.197h-2.392v-1.197h-1.196v1.197h-2.393v-1.197h1.196v-1.195h-2.392v-1.195h2.392V9.057h-1.196V7.861h2.393v1.195h1.196V7.861
		h2.392v1.195h-1.196v1.197h2.393V11.449z"/>
	<path fill="#C6C3C6" d="M392.335,4.271h-2.393v1.197h1.196v1.195h-2.392V5.469h-1.196v1.195h-2.393V5.469h1.196V4.271h-2.392V3.076
		h2.392V1.881h-1.196V0.684h2.393v1.197h1.196V0.684h2.392v1.197h-1.196v1.195h2.393V4.271z M392.335,11.449h-2.393v1.195h1.196
		v1.197h-2.392v-1.197h-1.196v1.197h-2.393v-1.197h1.196v-1.195h-2.392v-1.195h2.392V9.057h-1.196V7.861h2.393v1.195h1.196V7.861
		h2.392v1.195h-1.196v1.197h2.393V11.449z"/>
	<path fill="#C6C3C6" d="M401.905,4.271h-2.393v1.197h1.196v1.195h-2.392V5.469h-1.196v1.195h-2.393V5.469h1.196V4.271h-2.392V3.076
		h2.392V1.881h-1.196V0.684h2.393v1.197h1.196V0.684h2.392v1.197h-1.196v1.195h2.393V4.271z M401.905,11.449h-2.393v1.195h1.196
		v1.197h-2.392v-1.197h-1.196v1.197h-2.393v-1.197h1.196v-1.195h-2.392v-1.195h2.392V9.057h-1.196V7.861h2.393v1.195h1.196V7.861
		h2.392v1.195h-1.196v1.197h2.393V11.449z"/>
	<path fill="#C6C3C6" d="M411.474,4.271h-2.393v1.197h1.196v1.195h-2.392V5.469h-1.196v1.195h-2.393V5.469h1.196V4.271h-2.392V3.076
		h2.392V1.881h-1.196V0.684h2.393v1.197h1.196V0.684h2.392v1.197h-1.196v1.195h2.393V4.271z M411.474,11.449h-2.393v1.195h1.196
		v1.197h-2.392v-1.197h-1.196v1.197h-2.393v-1.197h1.196v-1.195h-2.392v-1.195h2.392V9.057h-1.196V7.861h2.393v1.195h1.196V7.861
		h2.392v1.195h-1.196v1.197h2.393V11.449z"/>
	<path fill="#C6C3C6" d="M421.043,4.271h-2.393v1.197h1.196v1.195h-2.392V5.469h-1.196v1.195h-2.393V5.469h1.196V4.271h-2.392V3.076
		h2.392V1.881h-1.196V0.684h2.393v1.197h1.196V0.684h2.392v1.197h-1.196v1.195h2.393V4.271z M421.043,11.449h-2.393v1.195h1.196
		v1.197h-2.392v-1.197h-1.196v1.197h-2.393v-1.197h1.196v-1.195h-2.392v-1.195h2.392V9.057h-1.196V7.861h2.393v1.195h1.196V7.861
		h2.392v1.195h-1.196v1.197h2.393V11.449z"/>
	<path fill="#C6C3C6" d="M430.612,4.271h-2.393v1.197h1.196v1.195h-2.392V5.469h-1.196v1.195h-2.393V5.469h1.196V4.271h-2.392V3.076
		h2.392V1.881h-1.196V0.684h2.393v1.197h1.196V0.684h2.392v1.197h-1.196v1.195h2.393V4.271z M430.612,11.449h-2.393v1.195h1.196
		v1.197h-2.392v-1.197h-1.196v1.197h-2.393v-1.197h1.196v-1.195h-2.392v-1.195h2.392V9.057h-1.196V7.861h2.393v1.195h1.196V7.861
		h2.392v1.195h-1.196v1.197h2.393V11.449z"/>
	<path fill="#C6C3C6" d="M440.181,4.271h-2.393v1.197h1.196v1.195h-2.392V5.469h-1.196v1.195h-2.393V5.469h1.196V4.271h-2.392V3.076
		h2.392V1.881h-1.196V0.684h2.393v1.197h1.196V0.684h2.392v1.197h-1.196v1.195h2.393V4.271z M440.181,11.449h-2.393v1.195h1.196
		v1.197h-2.392v-1.197h-1.196v1.197h-2.393v-1.197h1.196v-1.195h-2.392v-1.195h2.392V9.057h-1.196V7.861h2.393v1.195h1.196V7.861
		h2.392v1.195h-1.196v1.197h2.393V11.449z"/>
	<path fill="#C6C3C6" d="M449.75,4.271h-2.393v1.197h1.196v1.195h-2.392V5.469h-1.196v1.195h-2.393V5.469h1.196V4.271h-2.392V3.076
		h2.392V1.881h-1.196V0.684h2.393v1.197h1.196V0.684h2.392v1.197h-1.196v1.195h2.393V4.271z M449.75,11.449h-2.393v1.195h1.196
		v1.197h-2.392v-1.197h-1.196v1.197h-2.393v-1.197h1.196v-1.195h-2.392v-1.195h2.392V9.057h-1.196V7.861h2.393v1.195h1.196V7.861
		h2.392v1.195h-1.196v1.197h2.393V11.449z"/>
	<path fill="#C6C3C6" d="M459.32,4.271h-2.393v1.197h1.196v1.195h-2.392V5.469h-1.196v1.195h-2.393V5.469h1.196V4.271h-2.392V3.076
		h2.392V1.881h-1.196V0.684h2.393v1.197h1.196V0.684h2.392v1.197h-1.196v1.195h2.393V4.271z M459.32,11.449h-2.393v1.195h1.196
		v1.197h-2.392v-1.197h-1.196v1.197h-2.393v-1.197h1.196v-1.195h-2.392v-1.195h2.392V9.057h-1.196V7.861h2.393v1.195h1.196V7.861
		h2.392v1.195h-1.196v1.197h2.393V11.449z"/>
	<path fill="#C6C3C6" d="M468.888,4.271h-2.393v1.197h1.197v1.195H465.3V5.469h-1.196v1.195h-2.393V5.469h1.196V4.271h-2.393V3.076
		h2.393V1.881h-1.196V0.684h2.393v1.197h1.196V0.684h2.393v1.197h-1.197v1.195h2.393V4.271z M468.888,11.449h-2.393v1.195h1.197
		v1.197H465.3v-1.197h-1.196v1.197h-2.393v-1.197h1.196v-1.195h-2.393v-1.195h2.393V9.057h-1.196V7.861h2.393v1.195h1.196V7.861
		h2.393v1.195h-1.197v1.197h2.393V11.449z"/>
	<path fill="#C6C3C6" d="M478.458,4.271h-2.393v1.197h1.195v1.195h-2.392V5.469h-1.196v1.195h-2.393V5.469h1.196V4.271h-2.392V3.076
		h2.392V1.881h-1.196V0.684h2.393v1.197h1.196V0.684h2.392v1.197h-1.195v1.195h2.393V4.271z M478.458,11.449h-2.393v1.195h1.195
		v1.197h-2.392v-1.197h-1.196v1.197h-2.393v-1.197h1.196v-1.195h-2.392v-1.195h2.392V9.057h-1.196V7.861h2.393v1.195h1.196V7.861
		h2.392v1.195h-1.195v1.197h2.393V11.449z"/>
	<path fill="#C6C3C6" d="M488.027,4.271h-2.393v1.197h1.196v1.195h-2.392V5.469h-1.197v1.195h-2.393V5.469h1.197V4.271h-2.393V3.076
		h2.393V1.881h-1.197V0.684h2.393v1.197h1.197V0.684h2.392v1.197h-1.196v1.195h2.393V4.271z M488.027,11.449h-2.393v1.195h1.196
		v1.197h-2.392v-1.197h-1.197v1.197h-2.393v-1.197h1.197v-1.195h-2.393v-1.195h2.393V9.057h-1.197V7.861h2.393v1.195h1.197V7.861
		h2.392v1.195h-1.196v1.197h2.393V11.449z"/>
	<path fill="#C6C3C6" d="M497.596,4.271h-2.393v1.197h1.196v1.195h-2.393V5.469h-1.195v1.195h-2.393V5.469h1.195V4.271h-2.392V3.076
		h2.392V1.881h-1.195V0.684h2.393v1.197h1.195V0.684h2.393v1.197h-1.196v1.195h2.393V4.271z M497.596,11.449h-2.393v1.195h1.196
		v1.197h-2.393v-1.197h-1.195v1.197h-2.393v-1.197h1.195v-1.195h-2.392v-1.195h2.392V9.057h-1.195V7.861h2.393v1.195h1.195V7.861
		h2.393v1.195h-1.196v1.197h2.393V11.449z"/>
	<path fill="#C6C3C6" d="M507.166,4.271h-2.393v1.197h1.195v1.195h-2.392V5.469h-1.196v1.195h-2.393V5.469h1.196V4.271h-2.392V3.076
		h2.392V1.881h-1.196V0.684h2.393v1.197h1.196V0.684h2.392v1.197h-1.195v1.195h2.393V4.271z M507.166,11.449h-2.393v1.195h1.195
		v1.197h-2.392v-1.197h-1.196v1.197h-2.393v-1.197h1.196v-1.195h-2.392v-1.195h2.392V9.057h-1.196V7.861h2.393v1.195h1.196V7.861
		h2.392v1.195h-1.195v1.197h2.393V11.449z"/>
	<path fill="#C6C3C6" d="M516.734,4.271h-2.393v1.197h1.197v1.195h-2.393V5.469h-1.196v1.195h-2.393V5.469h1.196V4.271h-2.393V3.076
		h2.393V1.881h-1.196V0.684h2.393v1.197h1.196V0.684h2.393v1.197h-1.197v1.195h2.393V4.271z M516.734,11.449h-2.393v1.195h1.197
		v1.197h-2.393v-1.197h-1.196v1.197h-2.393v-1.197h1.196v-1.195h-2.393v-1.195h2.393V9.057h-1.196V7.861h2.393v1.195h1.196V7.861
		h2.393v1.195h-1.197v1.197h2.393V11.449z"/>
	<path fill="#C6C3C6" d="M526.304,4.271h-2.393v1.197h1.195v1.195h-2.392V5.469h-1.196v1.195h-2.393V5.469h1.196V4.271h-2.392V3.076
		h2.392V1.881h-1.196V0.684h2.393v1.197h1.196V0.684h2.392v1.197h-1.195v1.195h2.393V4.271z M526.304,11.449h-2.393v1.195h1.195
		v1.197h-2.392v-1.197h-1.196v1.197h-2.393v-1.197h1.196v-1.195h-2.392v-1.195h2.392V9.057h-1.196V7.861h2.393v1.195h1.196V7.861
		h2.392v1.195h-1.195v1.197h2.393V11.449z"/>
	<path fill="#C6C3C6" d="M535.873,4.271h-2.393v1.197h1.196v1.195h-2.392V5.469h-1.197v1.195h-2.393V5.469h1.197V4.271H527.5V3.076
		h2.393V1.881h-1.197V0.684h2.393v1.197h1.197V0.684h2.392v1.197h-1.196v1.195h2.393V4.271z M535.873,11.449h-2.393v1.195h1.196
		v1.197h-2.392v-1.197h-1.197v1.197h-2.393v-1.197h1.197v-1.195H527.5v-1.195h2.393V9.057h-1.197V7.861h2.393v1.195h1.197V7.861
		h2.392v1.195h-1.196v1.197h2.393V11.449z"/>
	<path fill="#C6C3C6" d="M545.442,4.271h-2.393v1.197h1.196v1.195h-2.393V5.469h-1.195v1.195h-2.393V5.469h1.195V4.271h-2.392V3.076
		h2.392V1.881h-1.195V0.684h2.393v1.197h1.195V0.684h2.393v1.197h-1.196v1.195h2.393V4.271z M545.442,11.449h-2.393v1.195h1.196
		v1.197h-2.393v-1.197h-1.195v1.197h-2.393v-1.197h1.195v-1.195h-2.392v-1.195h2.392V9.057h-1.195V7.861h2.393v1.195h1.195V7.861
		h2.393v1.195h-1.196v1.197h2.393V11.449z"/>
	<path fill="#C6C3C6" d="M555.011,4.271h-2.393v1.197h1.196v1.195h-2.392V5.469h-1.197v1.195h-2.393V5.469h1.197V4.271h-2.393V3.076
		h2.393V1.881h-1.197V0.684h2.393v1.197h1.197V0.684h2.392v1.197h-1.196v1.195h2.393V4.271z M555.011,11.449h-2.393v1.195h1.196
		v1.197h-2.392v-1.197h-1.197v1.197h-2.393v-1.197h1.197v-1.195h-2.393v-1.195h2.393V9.057h-1.197V7.861h2.393v1.195h1.197V7.861
		h2.392v1.195h-1.196v1.197h2.393V11.449z"/>
	<path fill="#C6C3C6" d="M564.58,4.271h-2.393v1.197h1.197v1.195h-2.393V5.469h-1.196v1.195h-2.393V5.469h1.196V4.271h-2.393V3.076
		h2.393V1.881h-1.196V0.684h2.393v1.197h1.196V0.684h2.393v1.197h-1.197v1.195h2.393V4.271z M564.58,11.449h-2.393v1.195h1.197
		v1.197h-2.393v-1.197h-1.196v1.197h-2.393v-1.197h1.196v-1.195h-2.393v-1.195h2.393V9.057h-1.196V7.861h2.393v1.195h1.196V7.861
		h2.393v1.195h-1.197v1.197h2.393V11.449z"/>
	<path fill="#C6C3C6" d="M574.15,4.271h-2.393v1.197h1.195v1.195h-2.392V5.469h-1.196v1.195h-2.393V5.469h1.196V4.271h-2.392V3.076
		h2.392V1.881h-1.196V0.684h2.393v1.197h1.196V0.684h2.392v1.197h-1.195v1.195h2.393V4.271z M574.15,11.449h-2.393v1.195h1.195
		v1.197h-2.392v-1.197h-1.196v1.197h-2.393v-1.197h1.196v-1.195h-2.392v-1.195h2.392V9.057h-1.196V7.861h2.393v1.195h1.196V7.861
		h2.392v1.195h-1.195v1.197h2.393V11.449z"/>
	<path fill="#C6C3C6" d="M583.718,4.271h-2.393v1.197h1.197v1.195h-2.393V5.469h-1.196v1.195h-2.393V5.469h1.196V4.271h-2.393V3.076
		h2.393V1.881h-1.196V0.684h2.393v1.197h1.196V0.684h2.393v1.197h-1.197v1.195h2.393V4.271z M583.718,11.449h-2.393v1.195h1.197
		v1.197h-2.393v-1.197h-1.196v1.197h-2.393v-1.197h1.196v-1.195h-2.393v-1.195h2.393V9.057h-1.196V7.861h2.393v1.195h1.196V7.861
		h2.393v1.195h-1.197v1.197h2.393V11.449z"/>
	<path fill="#C6C3C6" d="M593.288,4.271h-2.393v1.197h1.196v1.195h-2.393V5.469h-1.195v1.195h-2.393V5.469h1.195V4.271h-2.392V3.076
		h2.392V1.881h-1.195V0.684h2.393v1.197h1.195V0.684h2.393v1.197h-1.196v1.195h2.393V4.271z M593.288,11.449h-2.393v1.195h1.196
		v1.197h-2.393v-1.197h-1.195v1.197h-2.393v-1.197h1.195v-1.195h-2.392v-1.195h2.392V9.057h-1.195V7.861h2.393v1.195h1.195V7.861
		h2.393v1.195h-1.196v1.197h2.393V11.449z"/>
	<path fill="#C6C3C6" d="M602.857,4.271h-2.393v1.197h1.196v1.195h-2.392V5.469h-1.197v1.195h-2.393V5.469h1.197V4.271h-2.393V3.076
		h2.393V1.881h-1.197V0.684h2.393v1.197h1.197V0.684h2.392v1.197h-1.196v1.195h2.393V4.271z M602.857,11.449h-2.393v1.195h1.196
		v1.197h-2.392v-1.197h-1.197v1.197h-2.393v-1.197h1.197v-1.195h-2.393v-1.195h2.393V9.057h-1.197V7.861h2.393v1.195h1.197V7.861
		h2.392v1.195h-1.196v1.197h2.393V11.449z"/>
	<path fill="#C6C3C6" d="M612.425,4.271h-2.393v1.197h1.197v1.195h-2.393V5.469h-1.196v1.195h-2.393V5.469h1.196V4.271h-2.393V3.076
		h2.393V1.881h-1.196V0.684h2.393v1.197h1.196V0.684h2.393v1.197h-1.197v1.195h2.393V4.271z M612.425,11.449h-2.393v1.195h1.197
		v1.197h-2.393v-1.197h-1.196v1.197h-2.393v-1.197h1.196v-1.195h-2.393v-1.195h2.393V9.057h-1.196V7.861h2.393v1.195h1.196V7.861
		h2.393v1.195h-1.197v1.197h2.393V11.449z"/>
	<path fill="#C6C3C6" d="M621.996,4.271h-2.393v1.197h1.195v1.195h-2.392V5.469h-1.196v1.195h-2.393V5.469h1.196V4.271h-2.392V3.076
		h2.392V1.881h-1.196V0.684h2.393v1.197h1.196V0.684h2.392v1.197h-1.195v1.195h2.393V4.271z M621.996,11.449h-2.393v1.195h1.195
		v1.197h-2.392v-1.197h-1.196v1.197h-2.393v-1.197h1.196v-1.195h-2.392v-1.195h2.392V9.057h-1.196V7.861h2.393v1.195h1.196V7.861
		h2.392v1.195h-1.195v1.197h2.393V11.449z"/>
	<path fill="#C6C3C6" d="M631.564,4.271h-2.393v1.197h1.197v1.195h-2.393V5.469h-1.196v1.195h-2.393V5.469h1.196V4.271h-2.393V3.076
		h2.393V1.881h-1.196V0.684h2.393v1.197h1.196V0.684h2.393v1.197h-1.197v1.195h2.393V4.271z M631.564,11.449h-2.393v1.195h1.197
		v1.197h-2.393v-1.197h-1.196v1.197h-2.393v-1.197h1.196v-1.195h-2.393v-1.195h2.393V9.057h-1.196V7.861h2.393v1.195h1.196V7.861
		h2.393v1.195h-1.197v1.197h2.393V11.449z"/>
	<path fill="#C6C3C6" d="M641.133,4.271h-2.393v1.197h1.196v1.195h-2.393V5.469h-1.195v1.195h-2.393V5.469h1.195V4.271h-2.392V3.076
		h2.392V1.881h-1.195V0.684h2.393v1.197h1.195V0.684h2.393v1.197h-1.196v1.195h2.393V4.271z M641.133,11.449h-2.393v1.195h1.196
		v1.197h-2.393v-1.197h-1.195v1.197h-2.393v-1.197h1.195v-1.195h-2.392v-1.195h2.392V9.057h-1.195V7.861h2.393v1.195h1.195V7.861
		h2.393v1.195h-1.196v1.197h2.393V11.449z"/>
	<path fill="#C6C3C6" d="M650.703,4.271h-2.393v1.197h1.196v1.195h-2.392V5.469h-1.197v1.195h-2.393V5.469h1.197V4.271h-2.393V3.076
		h2.393V1.881h-1.197V0.684h2.393v1.197h1.197V0.684h2.392v1.197h-1.196v1.195h2.393V4.271z M650.703,11.449h-2.393v1.195h1.196
		v1.197h-2.392v-1.197h-1.197v1.197h-2.393v-1.197h1.197v-1.195h-2.393v-1.195h2.393V9.057h-1.197V7.861h2.393v1.195h1.197V7.861
		h2.392v1.195h-1.196v1.197h2.393V11.449z"/>
	<path fill="#C6C3C6" d="M660.271,4.271h-2.393v1.197h1.197v1.195h-2.393V5.469h-1.196v1.195h-2.393V5.469h1.196V4.271h-2.393V3.076
		h2.393V1.881h-1.196V0.684h2.393v1.197h1.196V0.684h2.393v1.197h-1.197v1.195h2.393V4.271z M660.271,11.449h-2.393v1.195h1.197
		v1.197h-2.393v-1.197h-1.196v1.197h-2.393v-1.197h1.196v-1.195h-2.393v-1.195h2.393V9.057h-1.196V7.861h2.393v1.195h1.196V7.861
		h2.393v1.195h-1.197v1.197h2.393V11.449z"/>
	<path fill="#C6C3C6" d="M669.841,4.271h-2.393v1.197h1.195v1.195h-2.392V5.469h-1.196v1.195h-2.393V5.469h1.196V4.271h-2.392V3.076
		h2.392V1.881h-1.196V0.684h2.393v1.197h1.196V0.684h2.392v1.197h-1.195v1.195h2.393V4.271z M669.841,11.449h-2.393v1.195h1.195
		v1.197h-2.392v-1.197h-1.196v1.197h-2.393v-1.197h1.196v-1.195h-2.392v-1.195h2.392V9.057h-1.196V7.861h2.393v1.195h1.196V7.861
		h2.392v1.195h-1.195v1.197h2.393V11.449z"/>
	<path fill="#C6C3C6" d="M679.41,4.271h-2.393v1.197h1.197v1.195h-2.393V5.469h-1.196v1.195h-2.393V5.469h1.196V4.271h-2.393V3.076
		h2.393V1.881h-1.196V0.684h2.393v1.197h1.196V0.684h2.393v1.197h-1.197v1.195h2.393V4.271z M679.41,11.449h-2.393v1.195h1.197
		v1.197h-2.393v-1.197h-1.196v1.197h-2.393v-1.197h1.196v-1.195h-2.393v-1.195h2.393V9.057h-1.196V7.861h2.393v1.195h1.196V7.861
		h2.393v1.195h-1.197v1.197h2.393V11.449z"/>
	<path fill="#C6C3C6" d="M688.979,4.271h-2.393v1.197h1.196v1.195h-2.393V5.469h-1.195v1.195h-2.393V5.469h1.195V4.271h-2.392V3.076
		h2.392V1.881h-1.195V0.684h2.393v1.197h1.195V0.684h2.393v1.197h-1.196v1.195h2.393V4.271z M688.979,11.449h-2.393v1.195h1.196
		v1.197h-2.393v-1.197h-1.195v1.197h-2.393v-1.197h1.195v-1.195h-2.392v-1.195h2.392V9.057h-1.195V7.861h2.393v1.195h1.195V7.861
		h2.393v1.195h-1.196v1.197h2.393V11.449z"/>
	<path fill="#C6C3C6" d="M698.548,4.271h-2.393v1.197h1.196v1.195h-2.392V5.469h-1.197v1.195h-2.393V5.469h1.197V4.271h-2.393V3.076
		h2.393V1.881h-1.197V0.684h2.393v1.197h1.197V0.684h2.392v1.197h-1.196v1.195h2.393V4.271z M698.548,11.449h-2.393v1.195h1.196
		v1.197h-2.392v-1.197h-1.197v1.197h-2.393v-1.197h1.197v-1.195h-2.393v-1.195h2.393V9.057h-1.197V7.861h2.393v1.195h1.197V7.861
		h2.392v1.195h-1.196v1.197h2.393V11.449z"/>
	<path fill="#C6C3C6" d="M708.118,4.271h-2.393v1.197h1.196v1.195h-2.393V5.469h-1.195v1.195h-2.393V5.469h1.195V4.271h-2.392V3.076
		h2.392V1.881h-1.195V0.684h2.393v1.197h1.195V0.684h2.393v1.197h-1.196v1.195h2.393V4.271z M708.118,11.449h-2.393v1.195h1.196
		v1.197h-2.393v-1.197h-1.195v1.197h-2.393v-1.197h1.195v-1.195h-2.392v-1.195h2.392V9.057h-1.195V7.861h2.393v1.195h1.195V7.861
		h2.393v1.195h-1.196v1.197h2.393V11.449z"/>
	<path fill="#C6C3C6" d="M717.687,4.271h-2.393v1.197h1.195v1.195h-2.392V5.469h-1.196v1.195h-2.393V5.469h1.196V4.271h-2.392V3.076
		h2.392V1.881h-1.196V0.684h2.393v1.197h1.196V0.684h2.392v1.197h-1.195v1.195h2.393V4.271z M717.687,11.449h-2.393v1.195h1.195
		v1.197h-2.392v-1.197h-1.196v1.197h-2.393v-1.197h1.196v-1.195h-2.392v-1.195h2.392V9.057h-1.196V7.861h2.393v1.195h1.196V7.861
		h2.392v1.195h-1.195v1.197h2.393V11.449z"/>
	<path fill="#C6C3C6" d="M727.255,4.271h-2.393v1.197h1.197v1.195h-2.393V5.469h-1.196v1.195h-2.393V5.469h1.196V4.271h-2.393V3.076
		h2.393V1.881h-1.196V0.684h2.393v1.197h1.196V0.684h2.393v1.197h-1.197v1.195h2.393V4.271z M727.255,11.449h-2.393v1.195h1.197
		v1.197h-2.393v-1.197h-1.196v1.197h-2.393v-1.197h1.196v-1.195h-2.393v-1.195h2.393V9.057h-1.196V7.861h2.393v1.195h1.196V7.861
		h2.393v1.195h-1.197v1.197h2.393V11.449z"/>
	<path fill="#C6C3C6" d="M736.826,4.271h-2.393v1.197h1.195v1.195h-2.392V5.469h-1.196v1.195h-2.393V5.469h1.196V4.271h-2.392V3.076
		h2.392V1.881h-1.196V0.684h2.393v1.197h1.196V0.684h2.392v1.197h-1.195v1.195h2.393V4.271z M736.826,11.449h-2.393v1.195h1.195
		v1.197h-2.392v-1.197h-1.196v1.197h-2.393v-1.197h1.196v-1.195h-2.392v-1.195h2.392V9.057h-1.196V7.861h2.393v1.195h1.196V7.861
		h2.392v1.195h-1.195v1.197h2.393V11.449z"/>
	<path fill="#C6C3C6" d="M746.394,4.271h-2.393v1.197h1.196v1.195h-2.392V5.469h-1.197v1.195h-2.393V5.469h1.197V4.271h-2.393V3.076
		h2.393V1.881h-1.197V0.684h2.393v1.197h1.197V0.684h2.392v1.197h-1.196v1.195h2.393V4.271z M746.394,11.449h-2.393v1.195h1.196
		v1.197h-2.392v-1.197h-1.197v1.197h-2.393v-1.197h1.197v-1.195h-2.393v-1.195h2.393V9.057h-1.197V7.861h2.393v1.195h1.197V7.861
		h2.392v1.195h-1.196v1.197h2.393V11.449z"/>
	<path fill="#C6C3C6" d="M755.963,4.271h-2.393v1.197h1.196v1.195h-2.393V5.469h-1.195v1.195h-2.393V5.469h1.195V4.271h-2.392V3.076
		h2.392V1.881h-1.195V0.684h2.393v1.197h1.195V0.684h2.393v1.197h-1.196v1.195h2.393V4.271z M755.963,11.449h-2.393v1.195h1.196
		v1.197h-2.393v-1.197h-1.195v1.197h-2.393v-1.197h1.195v-1.195h-2.392v-1.195h2.392V9.057h-1.195V7.861h2.393v1.195h1.195V7.861
		h2.393v1.195h-1.196v1.197h2.393V11.449z"/>
	<path fill="#C6C3C6" d="M765.533,4.271h-2.393v1.197h1.195v1.195h-2.392V5.469h-1.196v1.195h-2.393V5.469h1.196V4.271h-2.392V3.076
		h2.392V1.881h-1.196V0.684h2.393v1.197h1.196V0.684h2.392v1.197h-1.195v1.195h2.393V4.271z M765.533,11.449h-2.393v1.195h1.195
		v1.197h-2.392v-1.197h-1.196v1.197h-2.393v-1.197h1.196v-1.195h-2.392v-1.195h2.392V9.057h-1.196V7.861h2.393v1.195h1.196V7.861
		h2.392v1.195h-1.195v1.197h2.393V11.449z"/>
	<path fill="#C6C3C6" d="M775.101,4.271h-2.393v1.197h1.197v1.195h-2.393V5.469h-1.196v1.195h-2.393V5.469h1.196V4.271h-2.393V3.076
		h2.393V1.881h-1.196V0.684h2.393v1.197h1.196V0.684h2.393v1.197h-1.197v1.195h2.393V4.271z M775.101,11.449h-2.393v1.195h1.197
		v1.197h-2.393v-1.197h-1.196v1.197h-2.393v-1.197h1.196v-1.195h-2.393v-1.195h2.393V9.057h-1.196V7.861h2.393v1.195h1.196V7.861
		h2.393v1.195h-1.197v1.197h2.393V11.449z"/>
	<path fill="#C6C3C6" d="M784.671,4.271h-2.393v1.197h1.195v1.195h-2.392V5.469h-1.196v1.195h-2.393V5.469h1.196V4.271h-2.392V3.076
		h2.392V1.881h-1.196V0.684h2.393v1.197h1.196V0.684h2.392v1.197h-1.195v1.195h2.393V4.271z M784.671,11.449h-2.393v1.195h1.195
		v1.197h-2.392v-1.197h-1.196v1.197h-2.393v-1.197h1.196v-1.195h-2.392v-1.195h2.392V9.057h-1.196V7.861h2.393v1.195h1.196V7.861
		h2.392v1.195h-1.195v1.197h2.393V11.449z"/>
	<path fill="#C6C3C6" d="M794.24,4.271h-2.393v1.197h1.196v1.195h-2.392V5.469h-1.197v1.195h-2.393V5.469h1.197V4.271h-2.393V3.076
		h2.393V1.881h-1.197V0.684h2.393v1.197h1.197V0.684h2.392v1.197h-1.196v1.195h2.393V4.271z M794.24,11.449h-2.393v1.195h1.196
		v1.197h-2.392v-1.197h-1.197v1.197h-2.393v-1.197h1.197v-1.195h-2.393v-1.195h2.393V9.057h-1.197V7.861h2.393v1.195h1.197V7.861
		h2.392v1.195h-1.196v1.197h2.393V11.449z"/>
	<path fill="#C6C3C6" d="M803.808,4.271h-2.391v1.197h1.195v1.195h-2.393V5.469h-1.195v1.195h-2.393V5.469h1.195V4.271h-2.393V3.076
		h2.393V1.881h-1.195V0.684h2.393v1.197h1.195V0.684h2.393v1.197h-1.195v1.195h2.391V4.271z M803.808,11.449h-2.391v1.195h1.195
		v1.197h-2.393v-1.197h-1.195v1.197h-2.393v-1.197h1.195v-1.195h-2.393v-1.195h2.393V9.057h-1.195V7.861h2.393v1.195h1.195V7.861
		h2.393v1.195h-1.195v1.197h2.391V11.449z"/>
	<path fill="#C6C3C6" d="M813.378,4.271h-2.393v1.197h1.195v1.195h-2.393V5.469h-1.195v1.195h-2.393V5.469h1.197V4.271h-2.393V3.076
		h2.393V1.881h-1.197V0.684h2.393v1.197h1.195V0.684h2.393v1.197h-1.195v1.195h2.393V4.271z M813.378,11.449h-2.393v1.195h1.195
		v1.197h-2.393v-1.197h-1.195v1.197h-2.393v-1.197h1.197v-1.195h-2.393v-1.195h2.393V9.057h-1.197V7.861h2.393v1.195h1.195V7.861
		h2.393v1.195h-1.195v1.197h2.393V11.449z"/>
	<path fill="#C6C3C6" d="M822.947,4.271h-2.393v1.197h1.197v1.195h-2.393V5.469h-1.197v1.195h-2.391V5.469h1.195V4.271h-2.393V3.076
		h2.393V1.881h-1.195V0.684h2.391v1.197h1.197V0.684h2.393v1.197h-1.197v1.195h2.393V4.271z M822.947,11.449h-2.393v1.195h1.197
		v1.197h-2.393v-1.197h-1.197v1.197h-2.391v-1.197h1.195v-1.195h-2.393v-1.195h2.393V9.057h-1.195V7.861h2.391v1.195h1.197V7.861
		h2.393v1.195h-1.197v1.197h2.393V11.449z"/>
	<path fill="#C6C3C6" d="M832.517,4.271h-2.393v1.197h1.195v1.195h-2.393V5.469h-1.195v1.195h-2.393V5.469h1.197V4.271h-2.393V3.076
		h2.393V1.881h-1.197V0.684h2.393v1.197h1.195V0.684h2.393v1.197h-1.195v1.195h2.393V4.271z M832.517,11.449h-2.393v1.195h1.195
		v1.197h-2.393v-1.197h-1.195v1.197h-2.393v-1.197h1.197v-1.195h-2.393v-1.195h2.393V9.057h-1.197V7.861h2.393v1.195h1.195V7.861
		h2.393v1.195h-1.195v1.197h2.393V11.449z"/>
	<path fill="#C6C3C6" d="M842.085,4.271h-2.393v1.197h1.197v1.195h-2.393V5.469H837.3v1.195h-2.391V5.469h1.195V4.271h-2.393V3.076
		h2.393V1.881h-1.195V0.684h2.391v1.197h1.197V0.684h2.393v1.197h-1.197v1.195h2.393V4.271z M842.085,11.449h-2.393v1.195h1.197
		v1.197h-2.393v-1.197H837.3v1.197h-2.391v-1.197h1.195v-1.195h-2.393v-1.195h2.393V9.057h-1.195V7.861h2.391v1.195h1.197V7.861
		h2.393v1.195h-1.197v1.197h2.393V11.449z"/>
	<path fill="#C6C3C6" d="M851.654,4.271h-2.393v1.197h1.197v1.195h-2.393V5.469h-1.197v1.195h-2.391V5.469h1.195V4.271h-2.393V3.076
		h2.393V1.881h-1.195V0.684h2.391v1.197h1.197V0.684h2.393v1.197h-1.197v1.195h2.393V4.271z M851.654,11.449h-2.393v1.195h1.197
		v1.197h-2.393v-1.197h-1.197v1.197h-2.391v-1.197h1.195v-1.195h-2.393v-1.195h2.393V9.057h-1.195V7.861h2.391v1.195h1.197V7.861
		h2.393v1.195h-1.197v1.197h2.393V11.449z"/>
	<path fill="#C6C3C6" d="M861.224,4.271h-2.393v1.197h1.195v1.195h-2.393V5.469h-1.195v1.195h-2.393V5.469h1.197V4.271h-2.393V3.076
		h2.393V1.881h-1.197V0.684h2.393v1.197h1.195V0.684h2.393v1.197h-1.195v1.195h2.393V4.271z M861.224,11.449h-2.393v1.195h1.195
		v1.197h-2.393v-1.197h-1.195v1.197h-2.393v-1.197h1.197v-1.195h-2.393v-1.195h2.393V9.057h-1.197V7.861h2.393v1.195h1.195V7.861
		h2.393v1.195h-1.195v1.197h2.393V11.449z"/>
	<path fill="#C6C3C6" d="M870.792,4.271H868.4v1.197h1.197v1.195h-2.393V5.469h-1.197v1.195h-2.391V5.469h1.195V4.271h-2.393V3.076
		h2.393V1.881h-1.195V0.684h2.391v1.197h1.197V0.684h2.393v1.197H868.4v1.195h2.393V4.271z M870.792,11.449H868.4v1.195h1.197v1.197
		h-2.393v-1.197h-1.197v1.197h-2.391v-1.197h1.195v-1.195h-2.393v-1.195h2.393V9.057h-1.195V7.861h2.391v1.195h1.197V7.861h2.393
		v1.195H868.4v1.197h2.393V11.449z"/>
	<path fill="#C6C3C6" d="M880.363,4.271h-2.393v1.197h1.195v1.195h-2.393V5.469h-1.195v1.195h-2.393V5.469h1.197V4.271h-2.393V3.076
		h2.393V1.881h-1.197V0.684h2.393v1.197h1.195V0.684h2.393v1.197h-1.195v1.195h2.393V4.271z M880.363,11.449h-2.393v1.195h1.195
		v1.197h-2.393v-1.197h-1.195v1.197h-2.393v-1.197h1.197v-1.195h-2.393v-1.195h2.393V9.057h-1.197V7.861h2.393v1.195h1.195V7.861
		h2.393v1.195h-1.195v1.197h2.393V11.449z"/>
	<path fill="#C6C3C6" d="M889.931,4.271h-2.393v1.197h1.197v1.195h-2.393V5.469h-1.197v1.195h-2.391V5.469h1.195V4.271h-2.393V3.076
		h2.393V1.881h-1.195V0.684h2.391v1.197h1.197V0.684h2.393v1.197h-1.197v1.195h2.393V4.271z M889.931,11.449h-2.393v1.195h1.197
		v1.197h-2.393v-1.197h-1.197v1.197h-2.391v-1.197h1.195v-1.195h-2.393v-1.195h2.393V9.057h-1.195V7.861h2.391v1.195h1.197V7.861
		h2.393v1.195h-1.197v1.197h2.393V11.449z"/>
	<path fill="#C6C3C6" d="M899.501,4.271h-2.393v1.197h1.195v1.195h-2.393V5.469h-1.195v1.195h-2.393V5.469h1.197V4.271h-2.393V3.076
		h2.393V1.881h-1.197V0.684h2.393v1.197h1.195V0.684h2.393v1.197h-1.195v1.195h2.393V4.271z M899.501,11.449h-2.393v1.195h1.195
		v1.197h-2.393v-1.197h-1.195v1.197h-2.393v-1.197h1.197v-1.195h-2.393v-1.195h2.393V9.057h-1.197V7.861h2.393v1.195h1.195V7.861
		h2.393v1.195h-1.195v1.197h2.393V11.449z"/>
	<path fill="#C6C3C6" d="M909.07,4.271h-2.393v1.197h1.195v1.195h-2.393V5.469h-1.195v1.195h-2.393V5.469h1.197V4.271h-2.393V3.076
		h2.393V1.881h-1.197V0.684h2.393v1.197h1.195V0.684h2.393v1.197h-1.195v1.195h2.393V4.271z M909.07,11.449h-2.393v1.195h1.195
		v1.197h-2.393v-1.197h-1.195v1.197h-2.393v-1.197h1.197v-1.195h-2.393v-1.195h2.393V9.057h-1.197V7.861h2.393v1.195h1.195V7.861
		h2.393v1.195h-1.195v1.197h2.393V11.449z"/>
	<path fill="#C6C3C6" d="M918.638,4.271h-2.393v1.197h1.197v1.195h-2.393V5.469h-1.197v1.195h-2.391V5.469h1.195V4.271h-2.393V3.076
		h2.393V1.881h-1.195V0.684h2.391v1.197h1.197V0.684h2.393v1.197h-1.197v1.195h2.393V4.271z M918.638,11.449h-2.393v1.195h1.197
		v1.197h-2.393v-1.197h-1.197v1.197h-2.391v-1.197h1.195v-1.195h-2.393v-1.195h2.393V9.057h-1.195V7.861h2.391v1.195h1.197V7.861
		h2.393v1.195h-1.197v1.197h2.393V11.449z"/>
	<path fill="#C6C3C6" d="M928.208,4.271h-2.393v1.197h1.195v1.195h-2.393V5.469h-1.195v1.195h-2.393V5.469h1.197V4.271h-2.393V3.076
		h2.393V1.881h-1.197V0.684h2.393v1.197h1.195V0.684h2.393v1.197h-1.195v1.195h2.393V4.271z M928.208,11.449h-2.393v1.195h1.195
		v1.197h-2.393v-1.197h-1.195v1.197h-2.393v-1.197h1.197v-1.195h-2.393v-1.195h2.393V9.057h-1.197V7.861h2.393v1.195h1.195V7.861
		h2.393v1.195h-1.195v1.197h2.393V11.449z"/>
	<path fill="#C6C3C6" d="M937.777,4.271h-2.393v1.197h1.197v1.195h-2.393V5.469h-1.197v1.195h-2.391V5.469h1.195V4.271h-2.393V3.076
		h2.393V1.881h-1.195V0.684h2.391v1.197h1.197V0.684h2.393v1.197h-1.197v1.195h2.393V4.271z M937.777,11.449h-2.393v1.195h1.197
		v1.197h-2.393v-1.197h-1.197v1.197h-2.391v-1.197h1.195v-1.195h-2.393v-1.195h2.393V9.057h-1.195V7.861h2.391v1.195h1.197V7.861
		h2.393v1.195h-1.197v1.197h2.393V11.449z"/>
	<path fill="#C6C3C6" d="M947.347,4.271h-2.393v1.197h1.195v1.195h-2.393V5.469h-1.195v1.195h-2.393V5.469h1.197V4.271h-2.393V3.076
		h2.393V1.881h-1.197V0.684h2.393v1.197h1.195V0.684h2.393v1.197h-1.195v1.195h2.393V4.271z M947.347,11.449h-2.393v1.195h1.195
		v1.197h-2.393v-1.197h-1.195v1.197h-2.393v-1.197h1.197v-1.195h-2.393v-1.195h2.393V9.057h-1.197V7.861h2.393v1.195h1.195V7.861
		h2.393v1.195h-1.195v1.197h2.393V11.449z"/>
	<path fill="#C6C3C6" d="M956.916,4.271h-2.393v1.197h1.195v1.195h-2.393V5.469h-1.195v1.195h-2.393V5.469h1.197V4.271h-2.393V3.076
		h2.393V1.881h-1.197V0.684h2.393v1.197h1.195V0.684h2.393v1.197h-1.195v1.195h2.393V4.271z M956.916,11.449h-2.393v1.195h1.195
		v1.197h-2.393v-1.197h-1.195v1.197h-2.393v-1.197h1.197v-1.195h-2.393v-1.195h2.393V9.057h-1.197V7.861h2.393v1.195h1.195V7.861
		h2.393v1.195h-1.195v1.197h2.393V11.449z"/>
	<path fill="#C6C3C6" d="M966.484,4.271h-2.393v1.197h1.197v1.195h-2.393V5.469h-1.197v1.195h-2.391V5.469h1.195V4.271h-2.393V3.076
		h2.393V1.881h-1.195V0.684h2.391v1.197h1.197V0.684h2.393v1.197h-1.197v1.195h2.393V4.271z M966.484,11.449h-2.393v1.195h1.197
		v1.197h-2.393v-1.197h-1.197v1.197h-2.391v-1.197h1.195v-1.195h-2.393v-1.195h2.393V9.057h-1.195V7.861h2.391v1.195h1.197V7.861
		h2.393v1.195h-1.197v1.197h2.393V11.449z"/>
	<path fill="#C6C3C6" d="M976.054,4.271h-2.393v1.197h1.195v1.195h-2.393V5.469h-1.195v1.195h-2.393V5.469h1.197V4.271h-2.393V3.076
		h2.393V1.881h-1.197V0.684h2.393v1.197h1.195V0.684h2.393v1.197h-1.195v1.195h2.393V4.271z M976.054,11.449h-2.393v1.195h1.195
		v1.197h-2.393v-1.197h-1.195v1.197h-2.393v-1.197h1.197v-1.195h-2.393v-1.195h2.393V9.057h-1.197V7.861h2.393v1.195h1.195V7.861
		h2.393v1.195h-1.195v1.197h2.393V11.449z"/>
	<path fill="#C6C3C6" d="M985.623,4.271h-2.393v1.197h1.197v1.195h-2.393V5.469h-1.197v1.195h-2.391V5.469h1.195V4.271h-2.393V3.076
		h2.393V1.881h-1.195V0.684h2.391v1.197h1.197V0.684h2.393v1.197h-1.197v1.195h2.393V4.271z M985.623,11.449h-2.393v1.195h1.197
		v1.197h-2.393v-1.197h-1.197v1.197h-2.391v-1.197h1.195v-1.195h-2.393v-1.195h2.393V9.057h-1.195V7.861h2.391v1.195h1.197V7.861
		h2.393v1.195h-1.197v1.197h2.393V11.449z"/>
	<path fill="#C6C3C6" d="M995.193,4.271H992.8v1.197h1.195v1.195h-2.393V5.469h-1.195v1.195h-2.393V5.469h1.197V4.271h-2.393V3.076
		h2.393V1.881h-1.197V0.684h2.393v1.197h1.195V0.684h2.393v1.197H992.8v1.195h2.393V4.271z M995.193,11.449H992.8v1.195h1.195v1.197
		h-2.393v-1.197h-1.195v1.197h-2.393v-1.197h1.197v-1.195h-2.393v-1.195h2.393V9.057h-1.197V7.861h2.393v1.195h1.195V7.861h2.393
		v1.195H992.8v1.197h2.393V11.449z"/>
	<path fill="#C6C3C6" d="M1004.761,4.271h-2.393v1.197h1.197v1.195h-2.393V5.469h-1.197v1.195h-2.391V5.469h1.195V4.271h-2.393
		V3.076h2.393V1.881h-1.195V0.684h2.391v1.197h1.197V0.684h2.393v1.197h-1.197v1.195h2.393V4.271z M1004.761,11.449h-2.393v1.195
		h1.197v1.197h-2.393v-1.197h-1.197v1.197h-2.391v-1.197h1.195v-1.195h-2.393v-1.195h2.393V9.057h-1.195V7.861h2.391v1.195h1.197
		V7.861h2.393v1.195h-1.197v1.197h2.393V11.449z"/>
	<path fill="#C6C3C6" d="M1014.33,4.271h-2.393v1.197h1.197v1.195h-2.393V5.469h-1.197v1.195h-2.391V5.469h1.195V4.271h-2.393V3.076
		h2.393V1.881h-1.195V0.684h2.391v1.197h1.197V0.684h2.393v1.197h-1.197v1.195h2.393V4.271z M1014.33,11.449h-2.393v1.195h1.197
		v1.197h-2.393v-1.197h-1.197v1.197h-2.391v-1.197h1.195v-1.195h-2.393v-1.195h2.393V9.057h-1.195V7.861h2.391v1.195h1.197V7.861
		h2.393v1.195h-1.197v1.197h2.393V11.449z"/>
</g>
</svg>
